<?xml version="1.0" encoding="UTF-8" standalone="no"?>
<!-- Created with Inkscape (http://www.inkscape.org/) -->

<svg
   xmlns:dc="http://purl.org/dc/elements/1.1/"
   xmlns:cc="http://creativecommons.org/ns#"
   xmlns:rdf="http://www.w3.org/1999/02/22-rdf-syntax-ns#"
   xmlns:svg="http://www.w3.org/2000/svg"
   xmlns="http://www.w3.org/2000/svg"
   xmlns:sodipodi="http://sodipodi.sourceforge.net/DTD/sodipodi-0.dtd"
   xmlns:inkscape="http://www.inkscape.org/namespaces/inkscape"
   version="1.1"
   id="svg2"
   width="512"
   height="512"
   viewBox="0 0 512 512"
   sodipodi:docname="commission.svg"
   inkscape:version="0.92.5 (2060ec1f9f, 2020-04-08)">
  <metadata
     id="metadata8">
    <rdf:RDF>
      <cc:Work
         rdf:about="">
        <dc:format>image/svg+xml</dc:format>
        <dc:type
           rdf:resource="http://purl.org/dc/dcmitype/StillImage" />
      </cc:Work>
    </rdf:RDF>
  </metadata>
  <defs
     id="defs6" />
  <sodipodi:namedview
     pagecolor="#ffffff"
     bordercolor="#666666"
     borderopacity="1"
     objecttolerance="10"
     gridtolerance="10"
     guidetolerance="10"
     inkscape:pageopacity="0"
     inkscape:pageshadow="2"
     inkscape:window-width="1440"
     inkscape:window-height="839"
     id="namedview4"
     showgrid="false"
     inkscape:zoom="0.32593203"
     inkscape:cx="-198.418"
     inkscape:cy="-88.098887"
     inkscape:window-x="0"
     inkscape:window-y="29"
     inkscape:window-maximized="1"
     inkscape:current-layer="g1396" />
  <g
     id="g1396">
    <path
       style="fill:#d0d0d0"
       d="M 247.92168,449.7262 C 243.37783,446.6641 240,441.41805 240,437.42316 c 0,-2.88392 1.3318,-4.5304 11.00245,-13.60212 6.05135,-5.67657 11.67635,-11.73905 12.5,-13.47217 3.19411,-6.72103 1.27103,-14.70653 -4.83211,-20.06517 -4.29388,-3.77007 -9.56135,-4.99289 -15.11831,-3.50965 -4.79367,1.2795 -5.81209,0.639 -7.39742,-4.65235 -1.49904,-5.00335 -7.81158,-10.77912 -12.80462,-11.71582 -2.07314,-0.38892 -5.54937,-0.23202 -7.72495,0.34868 -5.14569,1.37346 -6.29255,0.83128 -7.07607,-3.34521 -0.79459,-4.23556 -5.89908,-10.23986 -10.25123,-12.05831 C 196.51931,354.60797 193.00879,354 190.49658,354 c -4.42694,0 -4.62422,-0.13197 -6.40393,-4.28386 -2.28894,-5.33987 -7.9395,-10.40918 -12.57127,-11.27811 -7.40544,-1.38927 -9.8674,-0.0588 -23.51467,12.70749 -7.07302,6.61644 -13.10392,12.66543 -13.40199,13.44219 -1.04056,2.71165 -4.21635,1.33128 -20.10472,-8.7386 C 105.7,350.27177 85.225,337.28769 69,326.9956 52.775,316.70352 32.075068,303.57496 23.00015,297.82103 13.925233,292.0671 6.3643889,286.6536 6.1982747,285.79104 c -0.1661141,-0.86256 1.6774127,-4.65591 4.0967263,-8.42967 4.754466,-7.41623 39.20881,-61.88984 47.247113,-74.69946 2.705211,-4.31095 5.6458,-8.22729 6.534641,-8.70299 1.627198,-0.87085 5.544309,1.53285 90.923245,55.79419 l 27.5,17.47722 8,-0.57697 c 4.4,-0.31734 10.475,-1.27478 13.5,-2.12765 3.025,-0.85288 8.425,-2.21225 12,-3.02083 10.0488,-2.27281 31.83869,-1.52269 32.71373,1.12617 0.2055,0.62208 -2.57295,3.23369 -6.17433,5.80359 -9.40129,6.70862 -35.58999,31.15717 -38.5394,35.97859 -5.37431,8.78542 -2.0569,23.75289 7.27141,32.80711 7.94054,7.70723 18.01351,11.12639 26.24714,8.9093 2.65621,-0.71524 8.35781,-4.65368 16.98965,-11.73578 15.82527,-12.98402 18.02133,-14.38536 22.55089,-14.39012 3.2007,-0.003 6.99184,2.86795 37.64853,28.51404 37.24242,31.15542 38.4797,32.52256 36.3649,40.18175 -1.39754,5.06147 -4.87745,9.7271 -9.48185,12.71266 C 338.46373,403.43973 336.34398,404 331.79983,404 326.37725,404 326,404.15299 326,406.35212 c 0,3.15622 -3.7792,8.58247 -7.92168,11.37408 -2.62992,1.77231 -4.77506,2.2738 -9.7262,2.2738 -6.00243,0 -6.35212,0.12949 -6.35212,2.35212 0,2.8276 -3.52421,8.2415 -7.07739,10.87231 -3.62381,2.68311 -9.53033,3.87289 -15.67261,3.15701 -5.08013,-0.59209 -5.25,-0.53205 -5.25,1.85545 0,3.25961 -3.72367,8.66027 -7.92168,11.48931 C 263.5483,451.43118 261.27726,452 257,452 c -4.27726,0 -6.5483,-0.56882 -9.07832,-2.2738 z M 219.29855,436.04048 C 215.35314,433.63483 213,429.28307 213,424.39233 c 0,-3.38677 1.01501,-4.74062 11.75,-15.67253 6.4625,-6.58105 13.50502,-13.26025 15.65004,-14.84267 4.64924,-3.42983 9.73027,-3.76686 14.03253,-0.93079 3.94617,2.60134 5.48586,5.66735 5.5509,11.05366 0.0541,4.48284 0.004,4.54893 -13.21457,17.33462 -7.29789,7.05905 -14.6189,13.69487 -16.2689,14.74627 -3.82011,2.43422 -7.16271,2.42216 -11.20145,-0.0404 z M 192.39626,420.57063 C 187.91455,418.6197 185,414.03589 185,408.9383 c 0,-4.08375 0.4675,-4.72903 11.75,-16.2185 C 211.10464,378.10184 215.13638,375 219.782,375 c 4.90117,0 9.71906,3.29576 11.5661,7.91198 2.74561,6.86194 1.26378,9.38316 -13.97342,23.77468 -7.46146,7.04734 -14.53568,13.35989 -15.72049,14.0279 -2.78749,1.57163 -5.4106,1.53085 -9.25793,-0.14393 z m -28.12657,-16.00555 c -4.14602,-1.86357 -7.26119,-6.99657 -7.26595,-11.97241 -0.003,-3.64426 0.78737,-4.71295 11.74626,-15.87287 C 183.02517,362.18278 187.14732,359 191.6997,359 199.13225,359 204,364.15925 204,372.03689 c 0,3.71142 -0.64188,4.80602 -6.25,10.65811 -3.4375,3.58704 -10.16032,10.09697 -14.9396,14.46651 -9.4912,8.6775 -12.78254,9.99178 -18.54071,7.40357 z m -24,-16 c -4.14602,-1.86357 -7.26119,-6.99657 -7.26595,-11.97241 -0.003,-3.64426 0.78737,-4.71295 11.74626,-15.87287 C 159.02517,346.18278 163.14732,343 167.6997,343 175.13225,343 180,348.15925 180,356.03689 c 0,3.71142 -0.64188,4.80602 -6.25,10.65811 -3.4375,3.58704 -10.16032,10.09697 -14.9396,14.46651 -9.4912,8.6775 -12.78254,9.99178 -18.54071,7.40357 z m 213.16237,-13.75053 c -1.61263,-1.24284 -9.64096,-7.89705 -17.84073,-14.78713 -8.19977,-6.89008 -21.02477,-17.63967 -28.5,-23.88797 C 299.6161,329.89115 291.925,323.30323 290,321.49964 c -7.21441,-6.75943 -14.55727,-8.28421 -21,-4.36076 -1.925,1.17228 -8.33824,6.13466 -14.25165,11.02752 C 239.5544,340.73816 237.50934,342 232.32833,342 215.96251,342 200.61574,320.31385 207.75,307.26894 c 2.24903,-4.11233 31.95814,-31.43324 39.52994,-36.35228 7.75939,-5.04091 18.93718,-9.58586 26.61717,-10.82269 8.07358,-1.30021 19.12386,0.002 33.38418,3.93352 5.9297,1.63488 11.91616,2.97251 13.30324,2.97251 1.50611,0 10.25448,-4.90171 21.71872,-12.16898 34.52506,-21.88572 78.01163,-49.4264 87.19675,-55.22297 4.95,-3.12386 9.89412,-5.55112 10.98694,-5.3939 2.37556,0.34176 0.51973,-2.46695 45.19871,68.40603 7.32289,11.6161 13.31435,21.86378 13.31435,22.77264 0,1.85333 -3.75208,4.36361 -54,36.12807 -18.975,11.99513 -46.06048,29.16378 -60.18995,38.15256 -14.12947,8.98878 -26.31004,16.58119 -27.06794,16.87202 -0.7579,0.29083 -2.69742,-0.48808 -4.31005,-1.73092 z M 242.5,220.99797 c -18.33345,-2.22562 -37.57012,-11.78517 -49.54877,-24.62295 -22.48438,-24.09699 -28.5411,-57.84427 -15.88832,-88.52758 9.51606,-23.076674 30.61062,-40.752536 56.52155,-47.361355 9.32504,-2.378436 27.43292,-2.384826 36.91554,-0.01303 19.20236,4.802906 36.49934,16.219459 47.00826,31.026942 24.01364,33.836163 20.74359,77.315123 -7.97477,106.033493 -12.57596,12.57595 -26.58348,19.72114 -44.93558,22.92147 -9.37911,1.63558 -12.47187,1.71158 -22.09791,0.54301 z m 38.78212,-49.36909 c 5.38867,-2.29608 7.99904,-5.95292 8.47404,-11.87119 0.34546,-4.30428 -0.005,-5.89237 -1.93028,-8.75769 -3.23508,-4.81355 -8.69077,-7.36757 -13.86915,-6.49269 -13.93724,2.35468 -16.36131,21.34556 -3.45673,27.08105 3.88274,1.72569 6.80144,1.73666 10.78212,0.0405 z M 269.95531,165.25 c -4.80703,-4.29725 -4.24995,-12.01204 1.0659,-14.76097 4.26988,-2.20804 7.57557,-1.82111 11.06301,1.29492 2.48744,2.22252 3.11578,3.57691 3.11578,6.71605 0,3.13914 -0.62834,4.49353 -3.11578,6.71605 -4.05836,3.62616 -8.0979,3.63746 -12.12891,0.034 z M 253.91605,141.45503 C 276.91173,114.40151 279.95639,110 275.67444,110 274.91086,110 263.3832,122.85004 250.05742,138.55564 227.17627,165.52309 224.07782,170 228.29493,170 c 0.74674,0 12.27624,-12.84524 25.62112,-28.54497 z m -20.63393,-6.82615 c 1.76983,-0.75412 4.34288,-2.59037 5.71788,-4.08057 2.12007,-2.29768 2.5,-3.67504 2.5,-9.06321 0,-5.65603 -0.32011,-6.68789 -2.91495,-9.39632 C 229.40658,102.50852 214,108.4062 214,121.5 c 0,10.17431 10.09105,17.04514 19.28212,13.12888 z M 221.81578,128.1267 C 219.27626,125.85765 218.6,124.46409 218.6,121.5 c 0,-4.6838 4.7655,-9.5 9.4,-9.5 4.6345,0 9.4,4.8162 9.4,9.5 0,4.6838 -4.7655,9.5 -9.4,9.5 -1.85639,0 -4.17316,-1.07641 -6.18422,-2.8733 z"
       id="path1410"
       inkscape:connector-curvature="0" />
    <path
       style="fill:#b0b0b0"
       d="m 250.5,450.11927 c -2.2,-1.01025 -4.77034,-2.70433 -5.71186,-3.76464 C 243.14601,444.50533 240,437.89591 240,436.29527 c 0,-0.42293 5.33147,-5.94989 11.84771,-12.28212 13.05409,-12.68547 14.85986,-15.80903 13.68164,-23.666 -0.86079,-5.74013 -5.96804,-11.58547 -12.20311,-13.96666 -3.91161,-1.49386 -5.19079,-1.56407 -9.15909,-0.50271 -4.10608,1.09821 -4.75274,1.04187 -5.88982,-0.51319 C 237.5748,384.40382 237,382.80505 237,381.81175 c 0,-2.93146 -6.76609,-9.557 -11.67376,-11.43126 -3.91161,-1.49386 -5.19079,-1.56407 -9.15909,-0.50271 -4.10608,1.09821 -4.75274,1.04187 -5.88982,-0.51319 C 209.5748,368.40382 209,366.81941 209,365.84367 c 0,-2.75093 -6.04032,-8.97392 -10.71965,-11.04383 -2.32081,-1.02662 -5.71286,-1.76602 -7.5379,-1.64311 -4.22785,0.28473 -5.43895,-0.49843 -6.21172,-4.01682 -1.1707,-5.33015 -10.64668,-12.1838 -16.74861,-12.11369 -4.71924,0.0542 -10.16439,3.83086 -22.81059,15.82093 -9.26273,8.78213 -13.49335,12.16658 -14.65247,11.72179 C 129.42276,364.225 101.3093,346.58865 67.84471,325.37706 26.474431,299.15444 7.0194381,286.28074 7.0607312,285.15527 7.0941334,284.24487 19.857151,263.475 35.422992,239 c 19.286953,-30.3259 28.817772,-44.45666 29.922289,-44.36394 0.891418,0.0748 12.990901,7.34682 26.887739,16.15998 95.60849,60.63341 89.95893,57.20731 94.2413,57.15135 4.90258,-0.0641 15.31921,-2.00723 25.93564,-4.83816 5.81275,-1.55 10.85033,-2.10561 19,-2.09558 17.41384,0.0215 19.22301,1.29104 10.29084,7.22166 -5.43708,3.61002 -35.04929,30.44885 -37.65009,34.12392 -0.79711,1.12635 -2.01093,4.21309 -2.69738,6.85941 -5.58435,21.52823 21.24744,45.79597 39.94446,36.12737 1.5768,-0.8154 9.16893,-6.62682 16.87142,-12.91427 C 271.31483,321.7011 272.44419,321 276.58398,321 c 3.57709,0 5.11924,0.62819 8.16314,3.32527 2.06408,1.8289 16.35288,13.80597 31.75288,26.61572 15.4,12.80974 29.23431,24.68005 30.74291,26.37845 5.33683,6.0083 4.27366,13.47148 -2.97945,20.91496 -4.3342,4.44796 -8.92069,6.16825 -14.10847,5.29179 -3.74692,-0.63304 -3.82143,-0.58287 -5.0059,3.37053 -2.53191,8.45075 -10.54594,13.87069 -18.70117,12.64774 -4.09211,-0.61365 -4.11497,-0.59911 -5.30551,3.37455 -2.71741,9.06993 -10.57945,13.84283 -21.00695,12.75294 l -5.83741,-0.61013 -1.1486,3.83369 c -1.59,5.30697 -4.76547,9.02566 -9.57085,11.20816 -5.12977,2.32982 -8.0314,2.33328 -13.0786,0.0156 z m -31.08004,-14.94869 c -4.48472,-2.81669 -6.85816,-8.31279 -5.44236,-12.60269 1.29536,-3.92499 26.41744,-29.00719 30.67435,-30.62566 3.8518,-1.46445 7.58459,-0.33517 11.08635,3.35398 7.26085,7.64937 5.82751,11.01546 -11.78584,27.678 -11.84099,11.20178 -14.54382,13.28846 -17.71282,13.67486 -2.59135,0.31596 -4.6854,-0.13802 -6.81968,-1.47849 z m -28.52208,-16.45714 c -4.51742,-3.03993 -6.42701,-8.52127 -4.53453,-13.01607 1.83364,-4.35505 28.02339,-29.6518 30.90674,-29.85289 7.05866,-0.49231 13.17116,3.66021 14.30801,9.72012 0.93396,4.97845 -1.27998,7.9658 -16.48109,22.23856 -15.61456,14.66095 -17.41756,15.47384 -24.19913,10.91028 z m -28,-16 c -4.51742,-3.03993 -6.42701,-8.52127 -4.53453,-13.01607 1.84435,-4.3805 27.64954,-29.27552 31.01215,-29.91832 6.34798,-1.21349 12.9859,3.3 14.17499,9.63838 0.97048,5.17312 -1.23817,8.18679 -16.46709,22.46912 -15.54512,14.57887 -17.38561,15.40279 -24.18552,10.82689 z m -24,-16 c -4.51742,-3.03993 -6.42701,-8.52127 -4.53453,-13.01607 1.84435,-4.3805 27.64954,-29.27552 31.01215,-29.91832 6.34798,-1.21349 12.9859,3.3 14.17499,9.63838 0.97048,5.17312 -1.23817,8.18679 -16.46709,22.46912 -15.54512,14.57887 -17.38561,15.40279 -24.18552,10.82689 z m 181.63928,-40.31576 c -19.22956,-16.26154 -36.19471,-30.20347 -37.70034,-30.98206 -3.52635,-1.82355 -9.177,-1.80819 -12.74064,0.0346 -1.54248,0.79765 -8.60763,6.22406 -15.70034,12.0587 -15.02689,12.36149 -17.47206,13.82177 -23.00371,13.73815 -7.90643,-0.11953 -18.55181,-7.98108 -22.45869,-16.58564 -2.44721,-5.38974 -2.53504,-14.23059 -0.17685,-17.80129 2.23739,-3.38778 31.19577,-30.0433 36.90996,-33.97477 6.55858,-4.51242 18.00613,-9.65128 25.72787,-11.54936 6.05252,-1.48777 8.09946,-1.54433 16.76248,-0.46318 5.42743,0.67734 14.59217,2.55804 20.3661,4.17933 5.77393,1.62129 11.3672,2.9478 12.4295,2.9478 1.0623,0 22.77007,-13.19694 48.23948,-29.32653 25.46941,-16.12959 51.86202,-32.8381 58.65023,-37.13001 12.00335,-7.58923 12.39084,-7.75186 14.11328,-5.92347 2.99921,3.1837 55.38861,86.72922 55.82836,89.02964 0.33092,1.73108 -0.75385,2.91191 -5.43521,5.91659 -3.21675,2.06463 -28.57364,18.15799 -56.34864,35.76303 -27.775,17.60504 -56.76265,35.98302 -64.417,40.83996 -7.65434,4.85693 -14.40434,8.82272 -15,8.81285 -0.59565,-0.01 -16.81628,-13.32284 -36.04584,-29.58438 z M 237.5,219.51588 c -15.85136,-2.95202 -34.17213,-12.83384 -44.07027,-23.77052 -27.81908,-30.73797 -29.78501,-73.44407 -4.87135,-105.821233 17.62345,-22.902995 49.44457,-34.995032 77.60365,-29.489422 35.86916,7.013069 61.52061,34.261265 66.05566,70.167475 6.72274,53.22724 -41.79287,98.76997 -94.71769,88.9137 z m 48.5347,-50.31529 c 6.60973,-6.60973 6.36231,-16.0108 -0.58185,-22.10785 C 282.36252,144.3794 281.2029,144 276,144 c -5.18498,0 -6.36704,0.38337 -9.40415,3.04998 -11.03664,9.69031 -4.60521,25.93592 10.2718,25.94628 4.88393,0.003 5.71004,-0.33865 9.16705,-3.79567 z m -16.44581,-5.27732 C 268.165,162.23108 267,159.7906 267,158.5 c 0,-1.2906 1.165,-3.73108 2.58889,-5.42327 C 271.64828,150.62928 272.95955,150 276,150 c 3.04045,0 4.35172,0.62928 6.41111,3.07673 C 283.835,154.76892 285,157.2094 285,158.5 c 0,1.2906 -1.165,3.73108 -2.58889,5.42327 C 280.35172,166.37072 279.04045,167 276,167 c -3.04045,0 -4.35172,-0.62928 -6.41111,-3.07673 z m -15.0565,-22.06209 c 20.08125,-23.6114 24.58981,-29.44444 23.76775,-30.75 -0.55798,-0.88615 -1.69256,-1.74489 -2.52129,-1.90831 C 274.36378,108.92383 225,165.87602 225,167.78766 c 0,1.20853 2.23008,3.21234 3.57507,3.21234 0.64629,0 12.32708,-13.11247 25.95732,-29.13882 z m -17.07954,-8.95392 c 11.91394,-10.46058 2.26536,-29.17848 -13.2995,-25.80058 -10.78583,2.34076 -14.64544,16.31463 -6.83674,24.75268 2.9456,3.183 5.23624,4.00236 11.39859,4.07725 4.45177,0.0541 5.73085,-0.38935 8.73765,-3.02935 z m -15.86396,-5.98399 C 220.165,125.23108 219,122.7906 219,121.5 c 0,-1.2906 1.165,-3.73108 2.58889,-5.42327 C 223.64828,113.62928 224.95955,113 228,113 c 3.04045,0 4.35172,0.62928 6.41111,3.07673 C 235.835,117.76892 237,120.2094 237,121.5 c 0,1.2906 -1.165,3.73108 -2.58889,5.42327 C 232.35172,129.37072 231.04045,130 228,130 c -3.04045,0 -4.35172,-0.62928 -6.41111,-3.07673 z"
       id="path1408"
       inkscape:connector-curvature="0" />
    <path
       style="fill:#8f8f8f"
       d="M 248.92168,448.7262 C 244.89733,446.0142 241,440.53294 241,437.58506 c 0,-1.36985 3.91427,-6.00261 11.07011,-13.10211 6.08857,-6.04062 11.71357,-12.1981 12.5,-13.68329 2.01004,-3.79595 1.79863,-11.6433 -0.42538,-15.79021 -1.02039,-1.90264 -3.53864,-4.82062 -5.59609,-6.4844 -3.47173,-2.80743 -4.321,-3.02505 -11.8055,-3.02505 h -8.06467 l -1.09802,-3.26112 C 234.54702,373.22965 227.386,368.62135 217.2491,369.15514 l -6.54885,0.34486 -1.10891,-3.26112 C 206.86897,358.23288 199.77569,353 191.64578,353 c -4.41932,0 -4.61972,-0.13587 -6.87721,-4.66268 -3.51593,-7.05028 -8.53105,-10.62927 -15.53392,-11.08563 -7.6091,-0.49586 -9.29251,0.55904 -24.72611,15.49441 -11.14955,10.78962 -12.89272,12.11866 -14.65668,11.17462 C 127.80468,362.8251 31.573006,301.91059 15.75,291.69441 10.9375,288.5872 7,285.78988 7,285.47814 c 0,-1.38891 56.474571,-89.72302 57.651216,-90.17454 0.724989,-0.27821 10.212552,5.10909 21.083473,11.97176 10.870921,6.86268 37.279741,23.56347 58.686261,37.11288 l 38.92096,24.63529 5.07904,-0.58316 c 6.78388,-0.7789 17.81819,-3.06768 24.57905,-5.0983 6.01944,-1.80792 31.55111,-2.19096 33.24334,-0.49873 0.53085,0.53085 -1.36657,2.50474 -4.63979,4.82679 -3.04587,2.16076 -12.81099,10.6185 -21.70028,18.79499 -18.67574,17.17817 -20.46768,19.91473 -19.65665,30.01852 0.64048,7.97903 3.49305,14.25465 9.30251,20.46543 8.89022,9.50437 21.03773,13.33953 30.16818,9.52458 2.00919,-0.8395 10.08725,-6.73131 17.95123,-13.09293 19.00494,-15.37415 18.78956,-15.34189 31.43791,-4.70828 5.16645,4.3435 20.52009,17.2282 34.1192,28.63266 13.59911,11.40446 25.18661,21.59669 25.75,22.6494 2.9176,5.45159 -0.69917,15.57232 -7.22951,20.23015 -2.53895,1.81094 -4.65765,2.33678 -9.72526,2.4137 l -6.47912,0.0984 -0.67059,3.27885 c -0.84435,4.12837 -3.58628,7.86382 -7.96312,10.84847 -2.8168,1.92084 -4.44169,2.26781 -9.36612,2 l -5.95807,-0.32402 -0.69165,3.3772 c -0.86474,4.2224 -3.57784,7.94215 -7.98416,10.94653 -2.98494,2.03523 -4.39681,2.28668 -11.37224,2.02533 l -7.96418,-0.2984 -0.68553,3.35187 c -2.20413,10.77699 -15.27406,16.68011 -23.96442,10.82367 z M 221.41519,435.55434 C 217.03784,433.68285 214,429.42177 214,425.15328 c 0,-3.27 1.22306,-4.79762 14.25,-17.7985 8.72461,-8.70715 15.3163,-14.48324 17,-14.89654 6.7719,-1.66233 13.75,3.81919 13.75,10.80106 0,3.81292 -0.6528,4.71131 -11.25,15.48244 -17.16358,17.44528 -20.24848,19.41473 -26.33481,16.8126 z m -28,-16 C 189.03784,417.68285 186,413.42177 186,409.15328 c 0,-3.27 1.22306,-4.79762 14.25,-17.7985 8.72461,-8.70715 15.3163,-14.48324 17,-14.89654 6.7719,-1.66233 13.75,3.81919 13.75,10.80106 0,3.81292 -0.6528,4.71131 -11.25,15.48244 -17.16358,17.44528 -20.24848,19.41473 -26.33481,16.8126 z M 165.5,403.57323 c -4.35323,-1.88637 -6.59363,-4.85242 -7.2259,-9.56632 l -0.55641,-4.14833 14.39116,-14.36265 c 8.82213,-8.80465 15.45533,-14.62387 17.14115,-15.03769 6.7719,-1.66233 13.75,3.81919 13.75,10.80106 0,3.81292 -0.6528,4.71131 -11.25,15.48244 -17.12071,17.4017 -20.27163,19.42208 -26.25,16.83149 z m -24,-16 c -4.35323,-1.88637 -6.59363,-4.85242 -7.2259,-9.56632 l -0.55641,-4.14833 14.39116,-14.36265 c 8.82213,-8.80465 15.45533,-14.62387 17.14115,-15.03769 6.7719,-1.66233 13.75,3.81919 13.75,10.80106 0,3.81292 -0.6528,4.71131 -11.25,15.48244 -17.12071,17.4017 -20.27163,19.42208 -26.25,16.83149 z m 183.92461,-37.64256 c -16.45853,-13.87965 -32.17255,-27.19704 -34.92003,-29.59422 -2.74748,-2.39717 -6.92479,-5.09532 -9.28291,-5.9959 -6.54986,-2.50141 -10.18588,-0.89316 -24.74057,10.94299 -21.28475,17.30916 -23.29785,18.1037 -33.27362,13.13256 -11.68227,-5.82152 -18.60451,-19.24152 -15.10427,-29.28231 1.15825,-3.32258 29.30105,-29.89746 37.89679,-35.78545 20.4356,-13.99816 36.2529,-15.60053 66.40998,-6.72765 8.75049,2.57459 8.9653,2.58897 12,0.80323 1.69951,-1.00005 28.18736,-17.70455 58.86189,-37.1211 30.67453,-19.41655 56.32453,-35.30011 57,-35.2968 1.42405,0.007 56.904,87.26024 57.09832,89.79848 0.14265,1.8632 -5.6134,5.77219 -46.60135,31.64746 -13.89786,8.77357 -40.11884,25.38723 -58.26884,36.91922 -18.15,11.532 -33.93392,21.15356 -35.07539,21.38125 -1.55322,0.30981 -9.60433,-5.93527 -32,-24.82176 z M 232.91989,217.99012 C 208.80053,212.0556 188.38113,194.9389 178.34284,172.24055 167.41785,147.53721 170.67951,115.58013 186.3637,93.653666 201.81812,72.048418 225.29916,60.014012 252,60.014012 c 21.87484,0 40.14656,7.318252 55.79956,22.349035 15.89356,15.261778 24.18643,35.023923 24.18643,57.636953 0,37.73969 -24.79714,69.27156 -61.37237,78.0407 -10.67123,2.55849 -27.17985,2.53634 -37.69373,-0.0506 z m 51.96744,-46.90989 c 11.63629,-8.28577 6.53324,-26.55585 -7.76509,-27.80083 C 268.01604,142.4865 261,149.11017 261,158.5 c 0,12.5717 13.73831,19.80697 23.88733,12.58023 z M 272.5,165.84527 c -3.06421,-1.67599 -4.5,-3.94204 -4.5,-7.10214 0,-4.03208 1.43462,-6.2663 4.96178,-7.7273 5.46559,-2.26392 11.03822,1.43998 11.03822,7.33664 0,3.83805 -0.99482,5.59349 -4.07152,7.18452 -3.33713,1.72569 -4.73125,1.78355 -7.42848,0.30828 z M 253.00493,144.36595 C 283.60807,108.25336 280.5062,112.5062 278.04062,110.04062 276.91828,108.91828 275.6371,108 275.19355,108 c -0.65023,0 -42.27972,48.48335 -49.38017,57.51012 -1.8652,2.37122 -1.86294,2.44032 0.146,4.44926 1.12234,1.12234 2.39765,2.04062 2.83402,2.04062 0.43637,0 11.33156,-12.43532 24.21153,-27.63405 z m -16.1176,-10.28572 c 8.35066,-5.94619 8.46241,-19.13469 0.21192,-25.00956 -11.42249,-8.13352 -27.12531,2.01217 -24.07143,15.55269 2.44731,10.85105 14.94497,15.80458 23.85951,9.45687 z M 224.5,128.84527 c -3.06421,-1.67599 -4.5,-3.94204 -4.5,-7.10214 0,-4.03208 1.43462,-6.2663 4.96178,-7.7273 5.46559,-2.26392 11.03822,1.43998 11.03822,7.33664 0,3.83805 -0.99482,5.59349 -4.07152,7.18452 -3.33713,1.72569 -4.73125,1.78355 -7.42848,0.30828 z"
       id="path1406"
       inkscape:connector-curvature="0" />
    <path
       style="fill:#707070"
       d="m 249.96601,448.75 c -4.22339,-2.1317 -8.90629,-8.16447 -8.94956,-11.52932 -0.009,-0.70362 5.35312,-6.55362 11.91594,-13 13.63198,-13.39013 15.41445,-16.73592 13.24243,-24.85685 -1.65757,-6.19747 -3.7445,-9.02734 -8.87445,-12.03369 -4.58495,-2.68696 -10.56764,-3.44957 -15.44571,-1.96885 -2.43051,0.73778 -2.74736,0.49179 -3.90162,-3.02915 -1.87974,-5.73389 -3.77463,-8.14328 -8.65267,-11.002 -4.58495,-2.68696 -10.56764,-3.44957 -15.44571,-1.96885 -2.43051,0.73778 -2.74736,0.49179 -3.90162,-3.02915 -0.69096,-2.10768 -1.9269,-4.86308 -2.74653,-6.12312 -2.39288,-3.67865 -9.757,-7.44417 -14.98953,-7.66466 -4.49785,-0.18953 -4.7751,-0.38364 -7.72583,-5.40925 -5.08276,-8.65684 -13.01056,-12.36954 -21.39829,-10.02112 -3.78576,1.05995 -6.8639,3.51698 -17.85692,14.25373 l -13.28265,12.97301 -2.84673,-1.42037 C 121.63053,359.19023 8.0444974,286.34425 8.023748,285.26648 c -0.013061,-0.67843 11.589508,-19.57843 25.783486,-42 14.193979,-22.42156 26.657666,-42.21487 27.697082,-43.98512 1.039416,-1.77025 2.436912,-3.42857 3.105545,-3.68514 0.668634,-0.25658 27.467447,16.19117 59.552919,36.55056 l 58.33722,37.01708 7,-0.55332 c 3.85,-0.30433 10.6,-1.51241 15,-2.68463 4.4,-1.17223 9.8,-2.5155 12,-2.98506 5.15311,-1.09986 26.59991,-1.164 28.30159,-0.0846 0.93232,0.59136 -0.34435,2.06243 -4.5,5.18517 -3.19087,2.39777 -12.67379,10.68187 -21.07314,18.4091 -17.19338,15.81756 -19.42151,19.07626 -19.33803,28.28243 0.0664,7.32248 1.23121,11.22317 5.19685,17.40308 8.04326,12.53433 24.01137,19.37949 34.79138,14.91426 1.83085,-0.75836 9.90766,-6.70491 17.94846,-13.21455 C 271.10877,323.0832 272.81681,322 276.49027,322 c 3.81907,0 5.70785,1.39041 34.02663,25.04834 34.5928,28.89936 39.49268,33.57153 39.46114,37.62731 -0.0303,3.89691 -3.15466,10.29085 -6.60194,13.51073 -4.04288,3.7762 -8.03213,5.0486 -13.4795,4.2994 -4.63859,-0.63797 -4.6462,-0.63409 -5.27386,2.68766 -1.69704,8.9813 -9.50017,14.58123 -18.57821,13.33268 l -4.79322,-0.65923 -0.62857,3.32655 c -1.81741,9.61836 -9.34199,14.51161 -20.69292,13.45666 l -6.70848,-0.62349 -0.61358,3.24669 c -1.00396,5.31238 -4.32044,9.7138 -8.87842,11.78288 -5.52133,2.50639 -8.34701,2.44764 -13.76333,-0.28618 z m -30.08453,-14.25309 c -3.29805,-1.79229 -6.26274,-7.84172 -5.44324,-11.10688 0.78866,-3.14225 5.15808,-7.93329 18.78421,-20.59676 10.00399,-9.29723 11.38242,-10.24782 14.86025,-10.24782 7.6672,0 13.23331,9.17803 9.2756,15.29464 -1.02207,1.57959 -7.79665,8.56177 -15.05463,15.51595 -11.54205,11.05891 -13.61049,12.63894 -16.5,12.60392 -1.81702,-0.022 -4.48201,-0.68039 -5.92219,-1.46305 z m -28,-16 c -1.44019,-0.78266 -3.38194,-3.03177 -4.31499,-4.99804 -2.86063,-6.02832 -1.1605,-8.83999 14.05252,-23.24007 7.406,-7.01025 14.44838,-13.10951 15.64972,-13.55391 5.00694,-1.85219 12.2074,2.98571 13.32712,8.95432 0.86655,4.61913 -0.83905,6.89053 -16.29218,21.69683 -11.54205,11.05891 -13.61049,12.63894 -16.5,12.60392 -1.81702,-0.022 -4.48201,-0.68039 -5.92219,-1.46305 z m -28,-16 c -1.44019,-0.78266 -3.38194,-3.03177 -4.31499,-4.99804 -2.86063,-6.02832 -1.1605,-8.83999 14.05252,-23.24007 7.406,-7.01025 14.44838,-13.10951 15.64972,-13.55391 7.44676,-2.75474 16.30742,7.54085 12.57164,14.60755 -0.7372,1.39451 -7.51473,8.41969 -15.06116,15.61152 -11.968,11.40561 -14.1397,13.07093 -17,13.036 -1.80357,-0.022 -4.45755,-0.68039 -5.89773,-1.46305 z m -24,-16 c -1.44019,-0.78266 -3.38194,-3.03177 -4.31499,-4.99804 -2.86063,-6.02832 -1.1605,-8.83999 14.05252,-23.24007 7.406,-7.01025 14.44838,-13.10951 15.64972,-13.55391 7.44676,-2.75474 16.30742,7.54085 12.57164,14.60755 -0.7372,1.39451 -7.51473,8.41969 -15.06116,15.61152 -11.968,11.40561 -14.1397,13.07093 -17,13.036 -1.80357,-0.022 -4.45755,-0.68039 -5.89773,-1.46305 z M 321.5,345.97531 c -18.7,-15.91914 -35.66957,-29.85097 -37.71016,-30.9596 -4.3495,-2.36306 -9.7673,-2.59585 -13.65271,-0.58662 -1.51996,0.786 -9.42293,6.82036 -17.56216,13.40969 -15.27809,12.36877 -18.36807,13.94133 -24.14073,12.28576 -7.65571,-2.19563 -16.03167,-9.4824 -18.94499,-16.48145 -1.86387,-4.4778 -2.16685,-12.50846 -0.58353,-15.46692 1.46943,-2.74566 31.16865,-30.44324 36.79149,-34.31186 6.63149,-4.56258 20.00487,-10.50597 26.70742,-11.86929 7.81569,-1.58973 18.14427,-0.5695 32.59537,3.2197 6.325,1.65847 12.88679,3.22902 14.58176,3.4901 2.68867,0.41416 10.57597,-4.27289 61.83419,-36.74516 49.09022,-31.09883 58.96141,-36.9929 60.02325,-35.83976 3.51012,3.8119 54.98016,86.68863 55.01745,88.58874 0.0363,1.84848 -11.28694,9.39023 -69.43995,46.25 -38.21582,24.22275 -69.94082,44.02318 -70.5,44.00096 C 355.95751,374.93739 340.2,361.89445 321.5,345.97531 Z m -80,-126.55064 c -1.1,-0.26056 -5.15,-1.18987 -9,-2.06513 -28.7511,-6.53625 -52.47653,-31.17088 -58.61337,-60.85954 -9.30319,-45.00678 19.77006,-87.343114 65.54703,-95.449271 29.36301,-5.199585 61.39206,8.65902 78.61009,34.013699 9.60859,14.149272 13.3971,26.847922 13.40605,44.935572 0.009,17.41311 -3.51231,29.71176 -12.40663,43.3365 -11.26493,17.25614 -27.17964,28.62719 -48.02842,34.3163 -5.43511,1.48311 -25.61859,2.69479 -29.51475,1.77187 z m 45.57497,-50.13938 c 6.47764,-6.94438 6.3102,-15.61192 -0.42776,-22.14261 -5.77463,-5.59699 -15.74848,-5.60553 -21.46316,-0.0184 -6.23542,6.09628 -6.62553,15.0254 -0.9394,21.50155 4.10228,4.67224 6.05159,5.41969 13.14613,5.04078 5.42769,-0.28989 6.189,-0.63432 9.68419,-4.38135 z m -17.00239,-5.92015 C 268.93266,161.91597 268,159.72666 268,158.5 c 0,-1.22666 0.93266,-3.41597 2.07258,-4.86514 C 271.67124,151.6025 273.02662,151 276,151 c 2.97338,0 4.32876,0.6025 5.92742,2.63486 1.13992,1.44917 2.07258,3.63848 2.07258,4.86514 0,1.22666 -0.93266,3.41597 -2.07258,4.86514 C 280.32876,165.3975 278.97338,166 276,166 c -2.97338,0 -4.32876,-0.6025 -5.92742,-2.63486 z M 255.1901,142.48911 c 13.59559,-15.94401 24.73965,-29.48187 24.76458,-30.08412 0.0728,-1.75877 -3.74738,-4.69852 -5.32098,-4.09467 -1.39825,0.53656 -49.77906,56.93155 -50.48632,58.84928 -0.54614,1.48086 3.04353,4.95028 4.77654,4.61654 0.85081,-0.16386 12.6706,-13.34302 26.26618,-29.28703 z m -16.11513,-10.20382 c 6.47764,-6.94438 6.3102,-15.61192 -0.42776,-22.14261 -5.77463,-5.59699 -15.74848,-5.60553 -21.46316,-0.0184 -6.23542,6.09628 -6.62553,15.0254 -0.9394,21.50155 4.10228,4.67224 6.05159,5.41969 13.14613,5.04078 5.42769,-0.28989 6.189,-0.63432 9.68419,-4.38135 z m -17.00239,-5.92015 C 220.93266,124.91597 220,122.72666 220,121.5 c 0,-1.22666 0.93266,-3.41597 2.07258,-4.86514 C 223.67124,114.6025 225.02662,114 228,114 c 2.97338,0 4.32876,0.6025 5.92742,2.63486 1.13992,1.44917 2.07258,3.63848 2.07258,4.86514 0,1.22666 -0.93266,3.41597 -2.07258,4.86514 C 232.32876,128.3975 230.97338,129 228,129 c -2.97338,0 -4.32876,-0.6025 -5.92742,-2.63486 z"
       id="path1404"
       inkscape:connector-curvature="0" />
    <path
       style="fill:#4e4e4e"
       d="m 250.5,448.83574 c -4.09009,-2.25658 -7.49426,-6.28824 -8.11832,-9.61476 -0.6213,-3.31182 -0.24846,-3.82571 10.93741,-15.07484 6.36936,-6.40538 12.05321,-12.91293 12.63078,-14.46124 2.62061,-7.02511 0.12717,-15.91796 -5.88062,-20.97317 -4.30281,-3.62058 -9.44043,-5.061 -15.50787,-4.34789 l -5.16992,0.60762 -1.26059,-3.48608 c -1.75645,-4.8574 -5.65806,-9.20352 -10.46258,-11.65461 -3.32534,-1.69646 -5.21097,-1.97592 -10.19304,-1.51069 l -6.11292,0.57083 -1.24602,-3.4458 C 207.29194,357.63445 199.55792,352 191.66116,352 c -4.0083,0 -4.539,-0.29086 -5.71619,-3.13286 -5.55733,-13.41657 -22.25631,-17.05956 -31.44497,-6.85991 -1.1,1.22103 -6.79496,6.67953 -12.65547,12.13 l -10.65548,9.90995 -60.844525,-38.59433 C 36.880036,304.22597 9.1093109,286.47717 8.6318019,286.01106 c -0.4848904,-0.4733 11.6160011,-20.5634 27.4087161,-45.50438 20.843496,-32.91755 28.695424,-44.54749 29.868934,-44.24061 0.87561,0.22898 27.388245,16.74909 58.916968,36.71136 l 57.32495,36.29504 8.17431,-0.56714 c 4.49588,-0.31193 10.64932,-1.28126 13.67432,-2.15406 12.63831,-3.64654 21.65092,-4.81528 31.46097,-4.07979 5.24646,0.39334 9.52196,1.01067 9.50109,1.37184 -0.0209,0.36118 -2.38337,2.28974 -5.25,4.2857 -7.55868,5.2629 -36.39788,32.39039 -38.44418,36.16237 -1.22021,2.24923 -1.73721,5.4602 -1.7291,10.73894 0.0147,9.55587 3.18621,16.52794 10.78939,23.71872 7.88411,7.45646 12.71479,9.66467 21.24565,9.71184 8.49407,0.047 10.06,-0.82962 28.95928,-16.21089 10.42347,-8.48319 13.17558,-10.25 15.96614,-10.25 2.95401,0 7.575,3.52076 37.29752,28.41727 18.65917,15.6295 34.2132,29.1663 34.5645,30.08179 2.31825,6.04125 -1.56562,15.61002 -7.9333,19.54547 -3.0086,1.85941 -4.54874,2.13162 -9.51349,1.68143 -5.78407,-0.52448 -5.93632,-0.47453 -6.4568,2.11845 -0.97196,4.84228 -3.91275,9.56315 -7.45767,11.97183 -3.02608,2.05614 -4.3476,2.31278 -9.75965,1.89534 -6.11918,-0.47199 -6.27151,-0.42367 -6.78769,2.1528 -2.15655,10.7643 -10.58742,16.19617 -21.82923,14.0642 -5.36072,-1.01663 -6.5744,-0.36106 -6.61186,3.57142 -0.0293,3.07736 -3.6344,8.29946 -7.25243,10.5054 -3.60892,2.20039 -10.99621,2.63057 -14.25914,0.83034 z M 220.31382,434.09232 C 216.43236,431.67379 215,429.1764 215,424.82743 c 0,-2.9226 1.65655,-4.95055 14.34874,-17.56574 C 243.09968,393.59418 243.86723,393 247.77182,393 253.51329,393 258,397.47073 258,403.19176 c 0,3.68297 -0.68125,4.73984 -7.75,12.02316 -11.76118,12.11818 -20.70675,19.73042 -23.88641,20.32617 -1.88221,0.35266 -3.95552,-0.14385 -6.04977,-1.44877 z m -28,-16 C 188.43236,415.67379 187,413.1764 187,408.82743 c 0,-2.9226 1.65655,-4.95055 14.34874,-17.56574 C 215.09968,377.59418 215.86723,377 219.77182,377 225.51329,377 230,381.47073 230,387.19176 c 0,3.68297 -0.68125,4.73984 -7.75,12.02316 -11.76118,12.11818 -20.70675,19.73042 -23.88641,20.32617 -1.88221,0.35266 -3.95552,-0.14385 -6.04977,-1.44877 z m -28,-16 C 160.43236,399.67379 159,397.1764 159,392.82743 c 0,-2.9226 1.65655,-4.95055 14.34874,-17.56574 C 187.09968,361.59418 187.86723,361 191.77182,361 197.51329,361 202,365.47073 202,371.19176 c 0,3.68297 -0.68125,4.73984 -7.75,12.02316 -11.76118,12.11818 -20.70675,19.73042 -23.88641,20.32617 -1.88221,0.35266 -3.95552,-0.14385 -6.04977,-1.44877 z m -24,-16 C 136.43236,383.67379 135,381.1764 135,376.82743 c 0,-2.9226 1.65655,-4.95055 14.34874,-17.56574 C 163.09968,345.59418 163.86723,345 167.77182,345 173.51329,345 178,349.47073 178,355.19176 c 0,3.68297 -0.68125,4.73984 -7.75,12.02316 -11.76118,12.11818 -20.70675,19.73042 -23.88641,20.32617 -1.88221,0.35266 -3.95552,-0.14385 -6.04977,-1.44877 z m 182.79546,-39.264 c -38.04208,-32.19553 -38.7261,-32.72698 -43.51139,-33.80624 -6.94064,-1.56537 -9.77182,0.0556 -32.10543,18.38141 -8.43959,6.92511 -10.22044,7.96004 -14.38586,8.36029 -14.39009,1.3827 -29.70902,-18.56847 -23.95456,-31.19812 1.30796,-2.87066 28.74845,-28.37009 36.34796,-33.77681 6.66805,-4.74403 15.78231,-9.23363 23.01125,-11.33515 7.60269,-2.21016 23.72896,-1.51621 34.48875,1.48414 19.85506,5.53654 17.89104,5.29661 22.42113,2.73898 2.24338,-1.26658 28.75592,-17.94498 58.91676,-37.06311 30.16084,-19.11813 55.39707,-34.54566 56.08052,-34.28339 1.82147,0.69896 56.73386,87.83049 56.21123,89.19244 -0.58317,1.51971 -136.51865,87.68399 -139.17949,88.22053 -1.52635,0.30778 -10.29651,-6.56591 -34.34087,-26.91497 z M 242.67863,218.97468 C 202.23715,214.09404 172.80576,180.82884 172.80576,140 c 0,-44.699923 34.49432,-79.194243 79.19424,-79.194243 21.55471,0 39.277,6.99149 54.87083,21.646693 24.41001,22.94071 31.47024,60.71313 17.09169,91.44101 -14.3233,30.6098 -47.71963,49.13188 -81.28389,45.08122 z M 283.03004,172.75 C 289.12504,169.6709 292,165.10363 292,158.5 c 0,-3.73265 -0.63851,-6.16504 -2.25807,-8.60212 C 287.25481,146.15534 280.02472,142 276,142 c -4.02472,0 -11.25481,4.15534 -13.74193,7.89788 C 260.63851,152.33496 260,154.76735 260,158.5 c 0,3.73265 0.63851,6.16504 2.25807,8.60212 C 264.74519,170.84466 271.97528,175 276,175 c 1.41692,0 4.58044,-1.0125 7.03004,-2.25 z m -11.84148,-8.78896 c -2.94167,-2.74058 -2.94167,-8.1815 0,-10.92208 C 275.85966,148.68716 283,151.98851 283,158.5 c 0,4.10513 -3.16854,7.5 -7,7.5 -1.44258,0 -3.60773,-0.91753 -4.81144,-2.03896 z m -17.05079,-19.64566 c 13.39923,-15.77654 24.94816,-29.49856 25.6643,-30.49338 1.12161,-1.55808 0.95466,-2.15618 -1.20455,-4.31538 C 277.21889,108.12798 275.67096,107 275.15769,107 c -0.78202,0 -46.97461,53.64204 -50.95976,59.178 -1.12161,1.55808 -0.95466,2.15618 1.20455,4.31538 1.37863,1.37864 2.92656,2.50662 3.43983,2.50662 0.51328,0 11.89623,-12.90808 25.29546,-28.68462 z M 235.03004,135.75 C 241.12504,132.6709 244,128.10363 244,121.5 c 0,-3.73265 -0.63851,-6.16504 -2.25807,-8.60212 C 239.25481,109.15534 232.02472,105 228,105 c -4.02472,0 -11.25481,4.15534 -13.74193,7.89788 C 212.63851,115.33496 212,117.76735 212,121.5 c 0,3.73265 0.63851,6.16504 2.25807,8.60212 C 216.74519,133.84466 223.97528,138 228,138 c 1.41692,0 4.58044,-1.0125 7.03004,-2.25 z m -11.24073,-8.1133 c -2.50395,-1.90238 -3.68487,-5.73243 -2.63496,-8.54598 C 224.09757,111.20342 235,113.10055 235,121.5 c 0,6.00188 -6.6191,9.62515 -11.21069,6.1367 z"
       id="path1402"
       inkscape:connector-curvature="0" />
    <path
       style="fill:#2e2e2d"
       d="m 250.26375,448.03308 c -3.22092,-1.46209 -4.76663,-3.01465 -6.4491,-6.4777 l -2.21285,-4.5547 12.09946,-12.25034 c 13.78415,-13.95603 15.56434,-17.38383 13.36377,-25.73223 -2.97906,-11.30174 -12.67036,-16.94784 -25.4574,-14.83133 -1.35038,0.22351 -2.17455,-0.546 -2.87761,-2.68678 -3.33007,-10.13995 -13.07956,-15.30655 -25.12239,-13.31322 -1.35038,0.22351 -2.17455,-0.546 -2.87761,-2.68678 -2.54693,-7.75534 -10.32906,-13.61078 -18.54967,-13.95718 -4.13204,-0.17411 -4.50466,-0.44376 -7.02197,-5.08155 -4.58664,-8.45021 -13.14654,-12.49016 -21.86204,-10.31804 -4.17898,1.04151 -6.50072,2.86804 -18.0378,14.19047 -12.08116,11.8564 -13.43937,12.90186 -15.5,11.93089 -4.35529,-2.05221 -119.267613,-75.28224 -120.113245,-76.54441 -0.5764159,-0.86035 7.994234,-15.26733 26.322906,-44.24795 14.947686,-23.63473 27.719347,-43.5307 28.381469,-44.21328 0.951103,-0.98049 13.480586,6.54294 59.67709,35.83356 l 58.47324,37.07462 7,-0.55496 c 3.85,-0.30522 10.6,-1.51404 15,-2.68626 4.4,-1.17223 9.8,-2.5155 12,-2.98506 4.61195,-0.98436 25.86425,-1.24327 26.78125,-0.32627 0.33802,0.33802 -1.5552,2.25052 -4.20716,4.25 -10.87939,8.20268 -36.39698,32.67173 -38.20529,36.63542 -2.47921,5.43425 -2.42402,14.94101 0.12631,21.75738 5.91361,15.80555 26.09851,27.08862 38.94266,21.7684 1.82754,-0.75699 9.85063,-6.65542 17.82909,-13.10761 13.85014,-11.20063 17.70244,-13.34161 21.54896,-11.97618 2.19398,0.77882 64.21037,52.7062 67.22432,56.28809 1.40198,1.66615 2.45986,4.19768 2.45986,5.88648 0,4.28999 -3.41925,10.33982 -7.67261,13.57551 -3.29481,2.50648 -4.42304,2.78728 -10.50923,2.61557 -6.34714,-0.17908 -6.81816,-0.0455 -6.81816,1.93427 0,1.16965 -0.92705,4.04167 -2.06011,6.38226 -2.90248,5.99572 -8.75928,8.79219 -16.41157,7.8361 C 300.2264,416.79784 300,416.86373 300,419.06905 c 0,4.8371 -3.90177,10.70499 -8.64489,13.00109 -3.92754,1.90129 -5.50329,2.10168 -11.93989,1.51841 C 272.2145,432.93604 272,432.98099 272,435.14258 c 0,4.63655 -3.93381,10.64696 -8.37583,12.79731 -5.24925,2.54112 -7.92663,2.55979 -13.36042,0.0932 z m -31.07788,-15.53013 c -3.53017,-2.97045 -4.71116,-6.82058 -3.20644,-10.4533 0.60209,-1.45357 7.22614,-8.46166 14.7201,-15.57353 12.60346,-11.96084 13.91322,-12.93067 17.46293,-12.93067 4.84734,0 8.65261,3.54011 9.51453,8.85153 0.61378,3.78223 0.58728,3.81697 -13.87976,18.19624 C 230.56484,433.74533 228.99121,435 225.72798,435 c -2.35275,0 -4.58885,-0.85349 -6.54211,-2.49705 z m -28,-16 c -3.53017,-2.97045 -4.71116,-6.82058 -3.20644,-10.4533 0.60209,-1.45357 7.22614,-8.46166 14.7201,-15.57353 12.60346,-11.96084 13.91322,-12.93067 17.46293,-12.93067 4.84734,0 8.65261,3.54011 9.51453,8.85153 0.61378,3.78223 0.58728,3.81697 -13.87976,18.19624 C 202.56484,417.74533 200.99121,419 197.72798,419 c -2.35275,0 -4.58885,-0.85349 -6.54211,-2.49705 z m -28,-16 c -3.53017,-2.97045 -4.71116,-6.82058 -3.20644,-10.4533 0.60209,-1.45357 7.22614,-8.46166 14.7201,-15.57353 12.60346,-11.96084 13.91322,-12.93067 17.46293,-12.93067 4.84734,0 8.65261,3.54011 9.51453,8.85153 0.61378,3.78223 0.58728,3.81697 -13.87976,18.19624 C 174.56484,401.74533 172.99121,403 169.72798,403 c -2.35275,0 -4.58885,-0.85349 -6.54211,-2.49705 z m -24,-16 c -3.53017,-2.97045 -4.71116,-6.82058 -3.20644,-10.4533 0.60209,-1.45357 7.22614,-8.46166 14.7201,-15.57353 12.60346,-11.96084 13.91322,-12.93067 17.46293,-12.93067 4.84734,0 8.65261,3.54011 9.51453,8.85153 0.61378,3.78223 0.58728,3.81697 -13.87976,18.19624 C 150.56484,385.74533 148.99121,387 145.72798,387 c -2.35275,0 -4.58885,-0.85349 -6.54211,-2.49705 z M 321.5,344.95756 c -18.7,-15.94027 -35.66957,-29.87674 -37.71016,-30.96994 -8.44455,-4.52394 -12.12822,-2.9381 -33.20029,14.2929 -7.94011,6.49277 -14.1027,10.78077 -16.00733,11.13808 -5.72553,1.07411 -13.02028,-2.0779 -18.71399,-8.08618 -4.36123,-4.60219 -5.49003,-6.68262 -6.80182,-12.53609 -1.82981,-8.16499 -0.53142,-10.29007 15.21961,-24.91004 7.81769,-7.25632 16.44506,-14.96625 19.17193,-17.13319 C 253.62667,268.67242 270.27273,262 280.26335,262 c 6.34236,0 20.82198,2.63688 30.38126,5.53271 4.47954,1.35701 9.08655,2.46729 10.23781,2.46729 1.15125,0 28.30172,-16.59634 60.33436,-36.88075 32.03265,-20.28441 58.70064,-36.68119 59.2622,-36.43729 1.51436,0.65773 54.98125,85.74717 55.25813,87.94011 0.17093,1.35379 -1.64326,3.03579 -6.5,6.02637 -3.70541,2.28164 -34.5989,21.80569 -68.6522,43.38679 -34.0533,21.58109 -62.6283,39.38827 -63.5,39.57149 -0.92794,0.19505 -15.67844,-11.68048 -35.58491,-28.64916 z m -81,-126.60421 c -11.19198,-1.80108 -23.62332,-6.61139 -32.18745,-12.45494 -41.23961,-28.13898 -47.38115,-85.31078 -12.96994,-120.737511 14.69177,-15.12534 31.17524,-22.581342 52.67541,-23.826773 37.25908,-2.158291 70.47116,22.037159 80.6076,58.723724 2.48253,8.98496 2.48253,30.89934 0,39.8843 -7.5889,27.46631 -29.12176,49.13312 -56.16168,56.51103 -5.92608,1.61694 -26.22522,2.82367 -31.96394,1.90017 z m 43.18811,-45.00964 c 7.73665,-3.67128 11.17641,-13.86067 7.34852,-21.76804 -2.89732,-5.98507 -7.00795,-8.82582 -13.55702,-9.36892 C 267.1975,141.35408 259.5,148.32961 259.5,158.5 c 0,12.45126 12.74614,20.27328 24.18811,14.84371 z M 270.5567,162.77749 C 267.00311,157.70402 269.88399,152 276,152 c 2.88268,0 4.28869,0.57408 5.4433,2.22251 C 284.99689,159.29598 282.11601,165 276,165 c -2.88268,0 -4.28869,-0.57408 -5.4433,-2.22251 z M 255.87544,143 c 13.78881,-16.225 25.08272,-30.23575 25.09757,-31.13499 0.0283,-1.71742 -3.9909,-4.8715 -6.18783,-4.85586 -1.50459,0.0107 -51.11539,58.34004 -51.64052,60.71575 -0.42721,1.93271 3.68901,5.37556 6.00777,5.02495 C 230.06127,172.61243 242.08662,159.225 255.87544,143 Z m -20.18733,-6.65629 c 7.73665,-3.67128 11.17641,-13.86067 7.34852,-21.76804 -2.89732,-5.98507 -7.00795,-8.82582 -13.55702,-9.36892 C 219.1975,104.35408 211.5,111.32961 211.5,121.5 c 0,12.45126 12.74614,20.27328 24.18811,14.84371 z M 222.5567,125.77749 C 219.00311,120.70402 221.88399,115 228,115 c 2.88268,0 4.28869,0.57408 5.4433,2.22251 C 236.99689,122.29598 234.11601,128 228,128 c -2.88268,0 -4.28869,-0.57408 -5.4433,-2.22251 z"
       id="path1400"
       inkscape:connector-curvature="0" />
    <path
       style="fill:#000000"
       d="m 250.29859,447.43253 c -3.36849,-1.72061 -5.51076,-4.35311 -6.76215,-8.30953 -0.65909,-2.08378 0.67387,-3.81078 10.80573,-14 6.35666,-6.39265 12.03013,-12.88979 12.6077,-14.4381 1.56088,-4.18427 1.27144,-12.3462 -0.56684,-15.98456 -4.18277,-8.2786 -10.79157,-12.09834 -19.92587,-11.51671 l -6.20766,0.39527 -1.1896,-3.2898 c -1.68505,-4.65993 -5.64791,-9.03827 -10.35329,-11.43877 -3.15894,-1.61158 -5.39774,-1.97564 -10.24945,-1.6667 l -6.20766,0.39527 -1.1896,-3.2898 C 208.29197,356.63453 200.49097,351 192.66116,351 c -4.0083,0 -4.539,-0.29086 -5.71619,-3.13286 -1.89851,-4.5834 -5.67074,-8.68659 -10.03092,-10.91099 -4.70506,-2.40034 -12.79088,-2.56747 -17.21371,-0.35579 -1.76019,0.8802 -8.67114,7.01934 -15.35767,13.64255 -9.45191,9.36238 -12.5618,11.88698 -13.97488,11.34473 C 126.87553,360.24754 10,285.72462 10,284.83797 c 0,-0.9467 52.505257,-84.43474 54.46992,-86.61204 0.908468,-1.00679 12.780101,6.09839 56.58986,33.86907 30.49212,19.32873 57.09128,36.016 59.10925,37.08283 3.3332,1.76216 4.43156,1.83986 12,0.84891 4.58203,-0.59993 11.25597,-1.9454 14.83097,-2.98993 10.88235,-3.17956 17.95788,-4.03531 26.97801,-3.26285 l 8.47802,0.72604 -4.14981,3.04761 c -8.91725,6.5488 -36.07141,32.43274 -37.91197,36.13851 -2.94154,5.92248 -2.63805,18.29434 0.60869,24.81388 3.82253,7.67575 13.32935,16.73871 20.28457,19.33751 6.34729,2.37165 13.64162,2.78036 18.62391,1.04353 1.76542,-0.61544 9.80264,-6.45056 17.86048,-12.96695 8.05784,-6.51639 15.94434,-12.13213 17.52555,-12.47942 2.12841,-0.46748 3.71228,-0.0216 6.09965,1.71694 7.86596,5.72834 63.87139,53.32853 65.28666,55.4885 3.35578,5.12157 -0.86114,15.33178 -7.81799,18.9293 -2.05084,1.06054 -5.01039,1.46437 -9.15296,1.24895 L 323.5907,400.5 l -0.7805,4.46849 c -0.54924,3.14443 -1.82795,5.5149 -4.31549,8 -3.43364,3.43027 -3.75575,3.53151 -11.23591,3.53151 h -7.70094 l -0.76408,4.46849 c -0.54059,3.16146 -1.7984,5.50144 -4.30023,8 L 290.95741,432.5 h -9.70055 -9.70055 l -0.76331,4.46849 c -1.11901,6.55081 -6.04166,11.17912 -12.44726,11.703 -3.19771,0.26153 -5.93453,-0.15984 -8.04715,-1.23896 z m -31.7097,-16.50926 c -3.17999,-3.7792 -3.29535,-7.59057 -0.33392,-11.03281 1.23477,-1.43524 7.71725,-7.84774 14.40551,-14.25 C 242.94306,395.7976 245.30995,394 247.98741,394 c 4.38692,0 9.01259,4.68778 9.01259,9.1336 0,2.891 -1.66295,4.9504 -13.78947,17.07693 C 229.95207,433.46898 229.26233,434 225.29942,434 c -3.3748,0 -4.59073,-0.5575 -6.71053,-3.07673 z m -28,-16 c -3.17999,-3.7792 -3.29535,-7.59057 -0.33392,-11.03281 1.23477,-1.43524 7.71725,-7.84774 14.40551,-14.25 C 214.94306,379.7976 217.30995,378 219.98741,378 c 4.38692,0 9.01259,4.68778 9.01259,9.1336 0,2.891 -1.66295,4.9504 -13.78947,17.07693 C 201.95207,417.46898 201.26233,418 197.29942,418 c -3.3748,0 -4.59073,-0.5575 -6.71053,-3.07673 z m -28,-16 c -3.17999,-3.7792 -3.29535,-7.59057 -0.33392,-11.03281 1.23477,-1.43524 7.71725,-7.84774 14.40551,-14.25 C 186.94306,363.7976 189.30995,362 191.98741,362 c 4.38692,0 9.01259,4.68778 9.01259,9.1336 0,2.891 -1.66295,4.9504 -13.78947,17.07693 C 173.95207,401.46898 173.26233,402 169.29942,402 c -3.3748,0 -4.59073,-0.5575 -6.71053,-3.07673 z m -24,-16 c -3.17999,-3.7792 -3.29535,-7.59057 -0.33392,-11.03281 1.23477,-1.43524 7.71725,-7.84774 14.40551,-14.25 C 162.94306,347.7976 165.30995,346 167.98741,346 c 4.38692,0 9.01259,4.68778 9.01259,9.1336 0,2.891 -1.66295,4.9504 -13.78947,17.07693 C 149.95207,385.46898 149.26233,386 145.29942,386 c -3.3748,0 -4.59073,-0.5575 -6.71053,-3.07673 z m 181.67579,-39.87954 c -22.13537,-18.77041 -36.58226,-30.32347 -38.85824,-31.07461 -7.59086,-2.50521 -11.11825,-0.74818 -30.87911,15.38115 -7.13497,5.82375 -14.26796,10.87313 -15.85109,11.22084 -9.82634,2.15823 -23.31611,-9.21315 -25.2459,-21.28135 -1.06613,-6.66724 1.1361,-9.79492 17.47609,-24.82015 17.55593,-16.14332 24.48726,-21.1208 35.59357,-25.56021 13.49251,-5.39322 25.04472,-5.11131 46.86438,1.14363 5.96716,1.71057 11.81378,2.85189 12.9925,2.53626 1.17871,-0.31563 28.01812,-16.97832 59.64312,-37.02819 44.69236,-28.33443 57.76788,-36.18779 58.70265,-35.25771 0.66146,0.65813 13.33064,20.32161 28.15373,43.69661 24.9423,39.33228 26.82782,42.61933 25.29735,44.10102 -2.46085,2.38242 -135.01444,86.06461 -136.97258,86.47194 -1.05102,0.21863 -14.88799,-10.84946 -36.91647,-29.52923 z M 235.36532,216.50683 C 220.48678,213.27104 208.61718,206.61718 197,195 c -16.86915,-16.86915 -23.67672,-34.40418 -22.71127,-58.5 0.84465,-21.08107 7.67192,-36.661786 22.6107,-51.600566 9.6344,-9.634395 18.69647,-15.256991 31.60057,-19.606683 7.32401,-2.468766 9.30973,-2.696627 23.5,-2.696627 14.19027,0 16.17599,0.227861 23.5,2.696627 12.9041,4.349692 21.96617,9.972288 31.60057,19.606683 14.93878,14.93878 21.76605,30.519496 22.6107,51.600566 0.96545,24.09582 -5.84212,41.63085 -22.71127,58.5 -11.79168,11.79168 -23.53173,18.30936 -38.8141,21.54828 -8.28355,1.7556 -24.6526,1.73492 -32.82058,-0.0414 z m 48.6734,-42.52658 c 9.00106,-4.592 12.16419,-16.54193 6.60302,-24.94543 -9.59654,-14.50136 -31.92745,-7.88116 -31.92745,9.46518 0,13.19793 13.55569,21.48421 25.32443,15.48025 z M 272,163 c -1.1,-1.1 -2,-3.125 -2,-4.5 0,-3.00281 3.22818,-6.5 6,-6.5 2.77182,0 6,3.49719 6,6.5 0,3.00281 -3.22818,6.5 -6,6.5 -1.1,0 -2.9,-0.9 -4,-2 z m -15.95009,-19.05853 c 13.99755,-16.53219 25.58754,-30.88378 25.75554,-31.89242 C 282.12531,110.12871 277.3409,106 274.79572,106 c -1.59151,0 -52.10377,59.24542 -52.65839,61.76261 -0.40294,1.82878 4.4726,6.2246 6.91258,6.23242 0.85245,0.003 13.00245,-13.52137 27,-30.05356 z m -20.01119,-6.96122 c 9.00106,-4.592 12.16419,-16.54193 6.60302,-24.94543 -9.59654,-14.501359 -31.92745,-7.88116 -31.92745,9.46518 0,13.13247 13.61406,21.45443 25.32443,15.48025 z M 224,126 c -1.1,-1.1 -2,-3.125 -2,-4.5 0,-3.00281 3.22818,-6.5 6,-6.5 2.77182,0 6,3.49719 6,6.5 0,3.00281 -3.22818,6.5 -6,6.5 -1.1,0 -2.9,-0.9 -4,-2 z"
       id="path1398"
       inkscape:connector-curvature="0" />
  </g>
</svg>
